<svg xmlns="http://www.w3.org/2000/svg" viewBox="0 0 128 128" fill="#0aa245"><path d="M116.5 42.13L65.93 8.52a4.18 4.18 0 0 0-4 0L11.5 42.13a3.52 3.52 0 0 0 1.93 6.47H18v5.78a1.66 1.66 0 0 0 1.76 1.75h1.4v44.45h-1.42a1.66 1.66 0 0 0-1.73 1.75v5.77h-5.1a1.65 1.65 0 0 0-1.75 1.75v8.4A1.65 1.65 0 0 0 12.9 120h102.2a1.65 1.65 0 0 0 1.75-1.75v-8.4a1.65 1.65 0 0 0-1.75-1.75H110v-5.78a1.65 1.65 0 0 0-1.75-1.75h-1.4V56.3h1.4a1.65 1.65 0 0 0 1.75-1.75v-5.78h4.55a3.62 3.62 0 0 0 1.93-6.64zM87.28 56.3h1.4v44.45h-1.4a1.66 1.66 0 0 0-1.76 1.75v5.77h-9.27v-5.77a1.65 1.65 0 0 0-1.75-1.75h-1.4V56.3h1.4a1.65 1.65 0 0 0 1.75-1.75v-5.78h9.27v5.78a1.89 1.89 0 0 0 1.76 1.75zm-14.53-3.5h-17.5v-4h17.5zM58.4 66.63h3.5a1.75 1.75 0 1 0 0-3.5h-3.5v-7h11.2v34.12h-3.5a1.75 1.75 0 0 0 0 3.5h3.5v7H58.4zm-3.15 37.45h17.5v4h-17.5zM53.5 56.3h1.4v44.45h-1.4a1.65 1.65 0 0 0-1.75 1.75v5.78h-9.28v-5.78a1.65 1.65 0 0 0-1.75-1.75h-1.4V56.3h1.4a1.65 1.65 0 0 0 1.75-1.75v-5.77h9.28v5.77a1.75 1.75 0 0 0 1.75 1.75zM39 48.78v4H21.47v-4zM24.63 66.63h3.5a1.75 1.75 0 1 0 0-3.5h-3.5v-7h11.2v34.12h-3.5a1.75 1.75 0 1 0 0 3.5h3.5v7h-11.2zm-3.15 37.45H39v4H21.48zm91.87 12.42h-98.7v-4.9h98.7zM89 108.1v-4h17.5v4zm14.34-17.85h-3.5a1.75 1.75 0 0 0 0 3.5h3.5v7H92.17V66.63h3.5a1.75 1.75 0 1 0 0-3.5h-3.5v-7h11.2zm3.15-37.45H89v-4h17.5zm8.06-7.52L13.42 45.1 64 11.5zM54 30.58a10 10 0 1 0 10-10 10 10 0 0 0-10 10zm16.45 0A6.48 6.48 0 1 1 64 24.1a6.46 6.46 0 0 1 6.47 6.48zm9.3 6.47h3.5v3.5h-3.5zm8.75 0H92v3.5h-3.5zm-52.5 0h3.5v3.5H36zm8.75 0h3.5v3.5h-3.5z"/></svg>