<svg xmlns="http://www.w3.org/2000/svg" viewBox="0 0 128 128" fill="#0aa245"><path d="M118.25 33h-35a1.65 1.65 0 0 0-1.75 1.75v9.45l-6.83-13.86 2.63-9.8a3.47 3.47 0 0 0-4.9-4l-2.8 1.4-5.78-2.8a3.31 3.31 0 0 0-3.15 0l-5.42 2.8-2.8-1.4a3.56 3.56 0 0 0-4.9 4.2l2.8 9.8c-2.1 4.2-13.82 26.6-18.72 41.12a36.56 36.56 0 0 0-5.25 2.1v-1.4a3.52 3.52 0 0 0-3.5-3.5H11.5A3.51 3.51 0 0 0 8 72.33v37.46a3.51 3.51 0 0 0 3.5 3.5h11.38c4.37 0 3.32-5.26 3.5-5.6 2.27-.53 4.9-2.28 8.57-1.4 8 1.93 28.7 5.42 33.25 5.42a30.39 30.39 0 0 0 3.85-.35c4-.88 23.46-11.55 26.43-14.35 2.62-2.45 4.55-5.25 2.62-8.4h17.15a1.65 1.65 0 0 0 1.75-1.75V34.7a1.65 1.65 0 0 0-1.75-1.71zm-1.75 20.8H85v-7h31.5zm0 10.5H85v-7h31.5zM85 67.8h31.5v7H85zm0-31.33h31.5v7H85zm-31.32-15.4a3.37 3.37 0 0 0 3.15 0l5.42-2.8 5.6 2.8a3.31 3.31 0 0 0 3.15 0l2.8-1.4-2.45 9.28H53.5l-2.62-9.1zM11.5 110V72.33h11.37v37.46H11.5zM96 94.38c-2.45 2.45-21.34 12.78-24.67 13.48a18.89 18.89 0 0 1-3 .35c-4 0-24.15-3.32-32.56-5.25-4.72-1-8 .7-9.45 1.05V77.6c4-1.75 8.22-6 28.35-1.75 7.17 1.57 12.77 2.8 17.68 4.9a2.38 2.38 0 0 1 1.39 3.33c-.17.7-.87 1.23-3.15 1.57a38.9 38.9 0 0 1-10.15-.17c-7.17-.7-8.57 10-1.22 11A56.78 56.78 0 0 0 94.1 90a2.88 2.88 0 0 1 2.63-.35c3 .87 1.4 2.8-.7 4.72zM59.8 93c-2.8-.35-2.1-4.37.52-4a45.82 45.82 0 0 0 10.85.18c8.4-1.06 7.88-9.63 2.45-11.55-5.6-2.28-12.07-3.68-18.2-5.08-7.87-1.57-13.12-2.27-20-1.57 4.9-13.83 15.4-34.13 17.68-38.68h3v20.3a1.75 1.75 0 0 0 3.5 0V32.26h5.25v9.8a1.75 1.75 0 0 0 3.5 0v-9.8h3.15L81.5 52c0 37.1-.53 36.57 1.75 36.57h6A52.21 52.21 0 0 1 59.8 93zm56.7-7.87H85v-7h31.5zm-66.32-23.3h3.5v3.5h-3.5zm10.5 0h3.5v3.5h-3.5zm10.5 0h3.5v3.5h-3.5z"/></svg>