<svg xmlns="http://www.w3.org/2000/svg" viewBox="0 0 128 128" fill="#0aa245"><path d="M52.8 53.88c-4.38 3 1.22 2.27-17 9.8a14.84 14.84 0 0 0-8.74 11h-3.3a3.5 3.5 0 0 0-3.5 3.5v38.3H17a1.75 1.75 0 1 0 0 3.5h94.1a1.75 1.75 0 1 0 0-3.5h-3.32V78.2a3.5 3.5 0 0 0-3.5-3.5h-3.32a14.49 14.49 0 0 0-8.75-11c-18.7-7.87-12.42-7-16.44-9.8v-9.8a34.56 34.56 0 0 0 4.15-8.1C86 24.14 83.77 12.25 70.65 8.75c-11.2-3-34.46 2.28-22 26.24a41.11 41.11 0 0 0 4.2 8.57zM76.6 35c-2.1 5.6-6.12 12.77-12.24 12.6-5.95 0-10.5-7.87-12.42-13.3.7-3.85 3.68-8 7.52-8a12.78 12.78 0 0 1 7.53 3 1.59 1.59 0 0 0 1.39.7 2 2 0 0 0 1.4-.53l3.5-3.84A10 10 0 0 1 76.59 35zM64 57.2l-7.7-3.67v-5.6a11.92 11.92 0 0 0 15.7.34v5.25zm-9.1-.34L61.37 60l-3.5 5.6-5.78-6.12zm49.33 59.64H23.77V78.2h80.64zM97.4 74.7H30.6a11.08 11.08 0 0 1 6.47-7.7 214.79 214.79 0 0 0 12.25-5.6l7.52 8.22a1.83 1.83 0 0 0 2.8-.17l4.2-6.83L68 69.45a1.71 1.71 0 0 0 2.8.17l7.52-8.22A213.63 213.63 0 0 0 90.56 67a10.78 10.78 0 0 1 6.82 7.7zM70 65.42L66.45 60l7-3.14 2.27 2.45zM49 19.6c3.84-11.55 34.45-12.77 30.25 8C78 25 73.8 19.78 71.7 22.05l-3.33 3.84c-7-5.07-14.7-4-18.54 3.68-1.4-4-1.75-7.35-.87-10zm36.86 75.9H74.32a10.46 10.46 0 0 0-20.64 0H41.44a1.75 1.75 0 1 0 0 3.5h12.24a10.46 10.46 0 0 0 20.64 0h11.54a1.65 1.65 0 0 0 1.75-1.75 1.76 1.76 0 0 0-1.75-1.75zM64 104.26a7 7 0 1 1 7-7 7 7 0 0 1-7 7z"/></svg>