<svg xmlns="http://www.w3.org/2000/svg" viewBox="0 0 128 128" fill="#0aa245"><path d="M119 85.65V47.28a3.49 3.49 0 0 0-3.49-3.48h-14.1L66.53 8.92a3.7 3.7 0 0 0-4.89 0l-8.37 8.37a3.38 3.38 0 0 0 0 4.88L74.9 43.8H51.53v-2.1a7.74 7.74 0 0 0-7.67-7.7h-31.4A3.5 3.5 0 0 0 9 37.52V73.8a3.5 3.5 0 0 0 3.49 3.49h17.77v10.1A1.65 1.65 0 0 0 32 89.14h33.13a4.13 4.13 0 0 1-.52 2.09c-6.27 14.47-1.92 19.18 1.22 22.67 1.4 1.56 2.27 2.6 2.27 4.18a1.75 1.75 0 1 0 3.49 0c0-3-1.57-4.7-3.14-6.45-2.8-3-5.93-6.45-.52-19 1.22-2.8.52-4 .7-12a3.7 3.7 0 0 1 3.83-3.83 3.63 3.63 0 0 1 3.84 3.83c0 13.43.17 9.77 4.7 16.9a1.781 1.781 0 1 0 3-1.92c-1.23-1.92-3.14-3.48-3.84-6.27h6.63c3.3 3.83 5.58 4.88 5.23 8-3.83 26-2.1 11.86-2.62 20.75a1.9 1.9 0 0 0 1.54 1.9h.18a1.72 1.72 0 0 0 1.74-1.57c.52-8.72-1 4 2.62-20.58.52-3.83-1.75-6.27-3.84-8.37h24.07a4.26 4.26 0 0 0 3.29-3.84zM62.52 26.7l3-3L90.77 49l-1.57 4.2-26.68-26.5zm35 18.13l-4.2 1.57-25.4-25.1 3-3zm-3.26 5.06L99.5 48l1.92 9.07-9.24-1.92zM64.1 11.54l4.36 4.36-8.37 8.37-4.36-4.36zm-51.44 26H44a4.24 4.24 0 0 1 4.18 4.18v33.12A7 7 0 0 0 44 73.61H12.82zm21.1 39.56h10.1a4.19 4.19 0 1 1 0 8.37h-10.1zm38.9-4a7 7 0 0 0-7.33 7.33v5.23H50.5a7 7 0 0 0 1.22-4.19v-34.2H78.4l10.3 10.3a1.27 1.27 0 0 0 .69.35l13.78 3a1.69 1.69 0 0 0 1.92-2.44l-2.44-11.33h12.73V85.3h-35.6v-5.23c.18-4.2-3.13-7-7.14-7zM59.73 57.92h13.6a1.75 1.75 0 0 0 0-3.49h-13.6A1.65 1.65 0 0 0 58 56.18a1.75 1.75 0 0 0 1.73 1.74zm49.35 8.55a1.65 1.65 0 0 0-1.75-1.75h-47.6a1.75 1.75 0 1 0 0 3.49h47.6a1.75 1.75 0 0 0 1.75-1.74zm-1.75 8.37h-16.9a1.75 1.75 0 0 0 0 3.49h16.9a1.65 1.65 0 0 0 1.75-1.75 1.75 1.75 0 0 0-1.75-1.74z"/></svg>