<svg xmlns="http://www.w3.org/2000/svg" xmlns:xlink="http://www.w3.org/1999/xlink" viewBox="0 0 128 128"><g fill="#0aa245"><path d="M118.25 40.55H95.68V12.73a3.52 3.52 0 0 0-3.5-3.51H53.85a3.52 3.52 0 0 0-3.5 3.51v27.82H33v-8.4a1 1 0 0 0-.18-.7 13.29 13.29 0 0 0-12.42-7.87A13.47 13.47 0 0 0 8 31.45V106a12.7 12.7 0 0 0 12.61 12.78h97.64A1.66 1.66 0 0 0 120 117V42.3a1.65 1.65 0 0 0-1.75-1.75zM92.18 12.73v48.64H53.85V12.73zM94.1 97.6l-7.7 1.92L89.9 91zM20.26 73.8c-.18-.18.35-.7 1.75-4.38l62.47 25.9-1.75 4.2L20.26 73.8zM85.7 92.17l-62.47-25.9c0-.17 1.92-4 1.75-4.2L87.45 88zM11.5 32.5a10.5 10.5 0 0 1 8.92-5.6 10.09 10.09 0 0 1 9.1 5.6v27.65l-3.15-1.4a3.75 3.75 0 0 0-4.72 2.1L16.93 72a3.72 3.72 0 0 0 1.76 4.9l10.67 4.38v13a13.79 13.79 0 0 0-18 0V32.5zm105 82.77H20.43a9.15 9.15 0 0 1-8.92-9.27v-6c3.67-7.53 14.7-7.35 18.2.35A1.73 1.73 0 0 0 33 99.7V82.9l49.88 20.65a1.14 1.14 0 0 0 1 0l13.3-3.15a1.69 1.69 0 0 0 1-2.63l-7.04-11.72a4 4 0 0 0-.88-.7L33 61.55v-17.5h17.36v17.5a3.5 3.5 0 0 0 3.5 3.5h38.32a3.51 3.51 0 0 0 3.51-3.5v-17.5h20.8zM60 30.93h26.05a1.65 1.65 0 0 0 1.75-1.75v-10.5a1.65 1.65 0 0 0-1.75-1.75H60a1.65 1.65 0 0 0-1.75 1.75v10.5A1.65 1.65 0 0 0 60 30.93zm1.73-10.33H84.3v7H61.73z"/><use xlink:href="#B"/><use xlink:href="#B" x="10.67"/><use xlink:href="#C"/><path d="M63.83 44.4h-3.15a1.75 1.75 0 0 0 0 3.5h3.15a1.65 1.65 0 0 0 1.75-1.75 1.76 1.76 0 0 0-1.75-1.75zm10.67 0h-3.15a1.75 1.75 0 0 0 0 3.5h3.15a1.65 1.65 0 0 0 1.75-1.75 1.76 1.76 0 0 0-1.75-1.75zm10.85 0H82.2a1.75 1.75 0 0 0 0 3.5h3.15a1.65 1.65 0 0 0 1.75-1.75 1.88 1.88 0 0 0-1.75-1.75z"/><use xlink:href="#B" y="17.5"/><use xlink:href="#B" x="10.67" y="17.5"/><use xlink:href="#C" y="17.5"/><path d="M50.7 102h3.5v3.5h-3.5zm-10.5 0h3.5v3.5h-3.5zm21 0h3.5v3.5h-3.5zm38.15-27.68h8.75a1.75 1.75 0 0 0 0-3.5h-8.75a1.65 1.65 0 0 0-1.75 1.75 1.76 1.76 0 0 0 1.75 1.75zm8.75 7h-8.74a1.75 1.75 0 0 0 0 3.5h8.74a1.75 1.75 0 0 0 0-3.5z"/></g><defs ><path id="B" d="M63.83 35.65h-3.15a1.75 1.75 0 0 0 0 3.5h3.15a1.65 1.65 0 0 0 1.75-1.75 1.75 1.75 0 0 0-1.75-1.75z"/><path id="C" d="M85.35 35.65H82.2a1.75 1.75 0 0 0 0 3.5h3.15a1.65 1.65 0 0 0 1.75-1.75 1.87 1.87 0 0 0-1.75-1.75z"/></defs></svg>