<svg xmlns="http://www.w3.org/2000/svg" viewBox="0 0 128 128" fill="#0aa245"><path d="M64 81.16A1.82 1.82 0 0 1 65.81 83h3.6a5.42 5.42 0 0 0-3.61-5.09v-3.97h-3.6v3.94A5.41 5.41 0 0 0 64 88.39a1.81 1.81 0 1 1-1.81 1.8h-3.6a5.42 5.42 0 0 0 3.61 5.09v4h3.62v-4A5.41 5.41 0 0 0 64 84.77a1.81 1.81 0 1 1 0-3.61zm0-14.46a19.87 19.87 0 1 0 19.87 19.87A19.89 19.89 0 0 0 64 66.71zm0 36.13a16.26 16.26 0 1 1 16.26-16.26A16.28 16.28 0 0 1 64 102.84zm54.66-47.16l-7.7-20V32.4h3.6V14.32h-28.9V32.4h3.6v3.2l-3.3 6.6a19.86 19.86 0 0 0-.25 17.3H42.27a20 20 0 0 0 1.86-8.33 20.21 20.21 0 0 0-2.11-9l-3.3-6.6V32.4h3.6V14.32h-28.9V32.4H17v3.28l-7.7 20A19.85 19.85 0 0 0 8 62.87v1.55A20.25 20.25 0 0 0 9.93 73l5.3 11.18v29.5h97.54v-29.5l5.3-11.18a20.25 20.25 0 0 0 1.93-8.58v-1.55a19.94 19.94 0 0 0-1.34-7.2zM89.3 17.93H111v10.84H89.3zm-72.3 0h21.7v10.84H17zm-3.8 53.52a16.61 16.61 0 0 1-1.58-7v-1.58a16.33 16.33 0 0 1 1.1-5.9l7.94-20.64V32.4H35.1v4l3.68 7.37a16.41 16.41 0 0 1-.33 15.33l-5.1 9.2a3.89 3.89 0 0 1-7.28-1.89v-.2a3.84 3.84 0 0 1 .42-1.73l4.8-9.64-3.23-1.62L25 59.48h-9.77v16.26zm96 38.6H18.84v-47h4.33a7.44 7.44 0 0 0-.72 3.14v.2a7.49 7.49 0 0 0 14 3.64l3.9-7h47.3l3.88 7a7.49 7.49 0 0 0 14-3.64v-.2a7.44 7.44 0 0 0-.72-3.14h4.33zm7.23-45.65a16.57 16.57 0 0 1-1.58 7l-2 4.3V59.48h-9.72l-3.1-6.23-3.3 1.62 4.82 9.64a3.87 3.87 0 0 1 .42 1.73v.2a3.88 3.88 0 0 1-7.27 1.89l-5.12-9.2a16.39 16.39 0 0 1-.33-15.32l3.68-7.38v-4h14.46v3.94L115.3 57a16.33 16.33 0 0 1 1.1 5.9z"/></svg>