<svg xmlns="http://www.w3.org/2000/svg" viewBox="0 0 128 128" fill="#0aa245"><path d="M90.83 51.4h-41a2.91 2.91 0 1 1 0-5.81h41a2.91 2.91 0 1 1 0 5.81zm0 14.6h-41a2.91 2.91 0 1 1 0-5.82h41a2.91 2.91 0 1 1 0 5.82zM39.6 119a21.67 21.67 0 1 1 21.67-21.67A21.68 21.68 0 0 1 39.59 119zm0-39.24a17.58 17.58 0 1 0 17.58 17.57A17.59 17.59 0 0 0 39.6 79.76zm70.9-43.42L85.85 8.8a2.16 2.16 0 0 0-1.68-.8H40.54a10.92 10.92 0 0 0-10.91 10.91v54.87A25.12 25.12 0 0 1 34 72.4V18.9a6.56 6.56 0 0 1 6.55-6.54H82V34.9a5.09 5.09 0 0 0 5.08 5.1h19.63v65.7a6.55 6.55 0 0 1-6.54 6.54H60.34a26.11 26.11 0 0 1-4 4.36h43.8a10.92 10.92 0 0 0 10.91-10.91V37.8a2.15 2.15 0 0 0-.57-1.46zm-23.42-.72a.75.75 0 0 1-.73-.73V15.8l17.7 19.83zm3.75 40.5h-37A25.7 25.7 0 0 1 60 81.94h30.83a2.91 2.91 0 1 0 0-5.81zm0 17.45h-26a25.64 25.64 0 0 1 .3 3.75l-.1 2.07h25.8a2.91 2.91 0 1 0 0-5.82zm-41.36 7.27H37.1V86.27a2.19 2.19 0 0 1 4.37 0V96.5h8a2.18 2.18 0 1 1 0 4.36z"/></svg>